<svg id="Layer_1" data-name="Layer 1" xmlns="http://www.w3.org/2000/svg" viewBox="0 0 474.91 930.26"><defs><style>.cls-1{fill:#00a0e0;}.cls-2{fill:#00339a;}.cls-3{fill:#29314d;}</style></defs><polygon class="cls-1" points="382.35 87.54 382.35 0 377.37 0.83 0.18 65.52 0.18 456.64 188.28 489.95 188.28 122.58 382.35 87.54"/><polygon class="cls-2" points="382.35 87.54 382.35 524.32 188.28 489.95 188.28 618.86 474.91 569.1 474.91 70.83 382.35 87.54"/><path class="cls-3" d="M4.09,737.35h1c.92.42,2.2.92,3.87,1.5s3.32,1.12,5,1.62,2.95.91,3.87,1.24a84.77,84.77,0,0,0,14.64,2.68q8,.81,15.7,1t13,.19h56.07l-5,2.74a19.1,19.1,0,0,1-1.25-4.93,50.22,50.22,0,0,1-.5-7.41V696l12.84-1.62h1.12v41.87q0,2.49.06,5.79c0,2.21.13,4.39.25,6.55a33.63,33.63,0,0,0,.69,5.48l-.13,1a40.67,40.67,0,0,1-9.84,2.24,115.7,115.7,0,0,1-14,.75H61.16q-11.22,0-22.31-.63a148.88,148.88,0,0,1-24.67-3.73q-2.37-.63-4.73-1.38c-1.58-.49-3.08-1-4.49-1.49s-2.66-1-3.74-1.5Zm53.83-32.77a7.46,7.46,0,0,1-5.3-2.06,7.83,7.83,0,0,1,0-10.84,8,8,0,0,1,10.66,0,8,8,0,0,1,0,10.84A7.4,7.4,0,0,1,57.92,704.58Zm17.82-2.37a7.56,7.56,0,0,1-5.3-2,7.91,7.91,0,0,1,0-10.91,8,8,0,0,1,10.66,0,8.11,8.11,0,0,1,0,10.91A7.52,7.52,0,0,1,75.74,702.21Z"/><path class="cls-3" d="M147.39,665l14.82-1.62.13,1a36.6,36.6,0,0,0-.69,5.61c-.12,2.24-.2,4.53-.24,6.85s-.07,4.32-.07,6V758h-14ZM157.48,758V745.58h21.81v10l-2.5,2.5Z"/><path class="cls-3" d="M200.84,745.58v10l-2.49,2.5H176.79v-10l2.49-2.49Z"/><path class="cls-3" d="M222.4,745.58v10l-2.49,2.5H198.35v-10l2.49-2.49Z"/><path class="cls-3" d="M244,745.58v10l-2.49,2.5H219.9v-10l2.5-2.49Z"/><path class="cls-3" d="M241.21,778.85a7.08,7.08,0,0,1,2.18-5.49,8,8,0,0,1,10.59,0,7,7,0,0,1,2.18,5.49,7.19,7.19,0,0,1-2.12,5.42,7.36,7.36,0,0,1-5.35,2.05,7.43,7.43,0,0,1-5.3-2.05A7.12,7.12,0,0,1,241.21,778.85Zm.25-20.81v-10l2.49-2.49H266l-5,2.74a19.29,19.29,0,0,1-1.24-5,50.1,50.1,0,0,1-.5-7.47V696l12.83-1.62h1.12v41.87c0,1.66,0,3.59.07,5.79s.12,4.39.25,6.55a34.89,34.89,0,0,0,.68,5.48v1a40,40,0,0,1-9.34,2.24,103.49,103.49,0,0,1-13.46.75ZM259,776.48a7.12,7.12,0,0,1,2.18-5.42,7.84,7.84,0,0,1,10.59,0,7.91,7.91,0,0,1,.06,10.84,7.94,7.94,0,0,1-10.65,0A7.12,7.12,0,0,1,259,776.48Z"/><path class="cls-3" d="M296.16,665,311,663.33l.12,1a35.52,35.52,0,0,0-.68,5.61c-.12,2.24-.21,4.53-.25,6.85s-.06,4.32-.06,6V758h-14ZM306.26,758V745.58h21.8v10l-2.49,2.5Z"/><path class="cls-3" d="M349.62,745.58v10l-2.49,2.5H325.57v-10l2.49-2.49Z"/><path class="cls-3" d="M371.17,745.58v10l-2.49,2.5H347.12v-10l2.5-2.49Z"/><path class="cls-3" d="M392.73,745.58v10l-2.49,2.5H368.68v-10l2.49-2.49Z"/><path class="cls-3" d="M392.73,745.58h22l-5,2.74a20.43,20.43,0,0,1-1.31-4.93,44.89,44.89,0,0,1-.56-7.41V696l13-1.62H422v56.95l-5.73-5.73h23.55v10l-2.49,2.5h-47.1v-10Zm22-62.56a7.36,7.36,0,0,1-5.35-2,8,8,0,0,1,0-10.84,7.36,7.36,0,0,1,5.35-2.06,7.46,7.46,0,0,1,5.3,2.06,7.83,7.83,0,0,1,0,10.84A7.45,7.45,0,0,1,414.78,683Z"/><path class="cls-3" d="M437.34,758v-10l2.49-2.49h22.05l-5,2.74a19.64,19.64,0,0,1-1.25-5,51.55,51.55,0,0,1-.49-7.47V696L468,694.36h1.12v41.87q0,2.49.06,5.79c0,2.21.13,4.39.25,6.55a36,36,0,0,0,.69,5.48v1a40,40,0,0,1-9.35,2.24,103.22,103.22,0,0,1-13.45.75ZM452,778.22a7.12,7.12,0,0,1,2.18-5.42,8,8,0,0,1,10.66,0,8,8,0,0,1,0,10.84,7.93,7.93,0,0,1-10.66,0A7.1,7.1,0,0,1,452,778.22Z"/><path class="cls-3" d="M0,902.42V816H13.92v86.41Zm7.92,0V890.78H34.68a15.22,15.22,0,0,0,8.64-2.4q3.6-2.4,3.61-8.64c0-3.84-1.17-6.54-3.49-8.1a15.37,15.37,0,0,0-8.76-2.34H7.92V857.9H30.24a14,14,0,0,0,8.52-2.46,15,15,0,0,0,5-6.48,22,22,0,0,0,1.68-8.58c0-4.73-1.28-8-3.84-9.79s-6-2.7-10.44-2.7H7.92V816H31.56q13.8,0,20.76,5.88t7,17.76a30,30,0,0,1-1.61,9.67,26.22,26.22,0,0,1-5,8.64,24.33,24.33,0,0,1-8.29,6.18l-.72-2.88q8.28,1.32,12.66,6.36a18.53,18.53,0,0,1,4.39,12.6,23.74,23.74,0,0,1-2.58,10.92,19.56,19.56,0,0,1-8.23,8.16q-5.64,3.12-14.64,3.12Z"/><path class="cls-3" d="M107.89,903.86a53.57,53.57,0,0,1-11.83-1.26,24.68,24.68,0,0,1-9.78-4.5,21.67,21.67,0,0,1-6.6-8.82q-2.4-5.58-2.4-14.1V857.54q0-2.4-.12-6.18t-.3-7.51A36.38,36.38,0,0,0,76.2,838l.24-1H90.72v37.2q0,7.44,2.17,11.4a11.34,11.34,0,0,0,6.35,5.46,29.72,29.72,0,0,0,10,1.5,40,40,0,0,0,7.5-.72q3.78-.72,6.66-1.44l-2.28,3.24a21.45,21.45,0,0,1-.66-4.32q-.18-2.64-.18-5.64V857.54q0-2.4-.12-6.18t-.3-7.51a36.38,36.38,0,0,0-.66-5.87l.24-1h14.28v41.52q0,2.4.06,6.18t.24,7.5a36.53,36.53,0,0,0,.66,5.88l-.24,1a56.57,56.57,0,0,1-8.16,2.4q-4.8,1.08-9.72,1.74A66.1,66.1,0,0,1,107.89,903.86Z"/><path class="cls-3" d="M155.53,902.42V861.26q0-2.4-.06-6.18t-.24-7.5a36.82,36.82,0,0,0-.66-5.89l.24-1a67.9,67.9,0,0,1,8.22-2.53,99.6,99.6,0,0,1,10-1.91,66.43,66.43,0,0,1,9.18-.73,48.49,48.49,0,0,1,11.4,1.27,25.21,25.21,0,0,1,9.48,4.44,20.76,20.76,0,0,1,6.54,8.76q2.34,5.58,2.34,14.22v38.16H198.49V865.1q0-7.32-2.1-11.28a11.19,11.19,0,0,0-6.12-5.46,27.3,27.3,0,0,0-9.54-1.5,38.7,38.7,0,0,0-7.8.84,57.8,57.8,0,0,0-7.2,1.92l2.16-3.72a20.24,20.24,0,0,1,.84,4.56q.24,2.76.24,6v46Z"/><path class="cls-3" d="M257.42,903.86q-14.4,0-21.73-5t-7.32-15.72a18.44,18.44,0,0,1,3.48-11.52,20.82,20.82,0,0,1,9.84-6.84,50.92,50.92,0,0,1,25.21-1.26q4.2,1,7.44,2v9.48a52.71,52.71,0,0,0-7.26-1.74,47,47,0,0,0-8.22-.78q-8.88,0-13.27,2.34t-4.37,8.34q0,5.64,4.19,8.1t12.13,2.46a47.9,47.9,0,0,0,8.76-.78,36.16,36.16,0,0,0,7.8-2.34l-2.28,4a23.23,23.23,0,0,1-.6-2.52q-.24-1.32-.42-2.7t-.24-3.06q-.06-1.68-.06-3.84V862.94q0-7-2-10.5a9.58,9.58,0,0,0-5.94-4.68,36.67,36.67,0,0,0-10-1.14,41.35,41.35,0,0,0-9.6,1.14,42.4,42.4,0,0,0-7.69,2.46h-1.08V838.93a47.92,47.92,0,0,1,9.66-2.52,68.15,68.15,0,0,1,10.39-.84,58.33,58.33,0,0,1,11.7,1.09,23.52,23.52,0,0,1,9.36,4A19.07,19.07,0,0,1,281.6,849q2.22,5.34,2.22,14v15.48q0,2.4.06,6.24t.3,7.5a40.14,40.14,0,0,0,.72,5.82l-.36,1a79.35,79.35,0,0,1-8.76,2.58,89.64,89.64,0,0,1-9.6,1.74A71.12,71.12,0,0,1,257.42,903.86Z"/><path class="cls-3" d="M319.7,905.9l-26.28-67.45V837h14.16l19.68,54.12Zm-11.88,24.36v-1.44l15.24-37.08L343.58,837h13.56v1.43L320.9,930.26Z"/><path class="cls-3" d="M391.71,903.86q-14.4,0-21.72-5t-7.32-15.72a18.44,18.44,0,0,1,3.48-11.52,20.82,20.82,0,0,1,9.84-6.84,50.88,50.88,0,0,1,25.2-1.26q4.2,1,7.44,2v9.48a52.71,52.71,0,0,0-7.26-1.74,47,47,0,0,0-8.22-.78q-8.88,0-13.26,2.34t-4.38,8.34q0,5.64,4.2,8.1t12.12,2.46a47.9,47.9,0,0,0,8.76-.78,36.16,36.16,0,0,0,7.8-2.34l-2.28,4a23.23,23.23,0,0,1-.6-2.52q-.24-1.32-.42-2.7t-.24-3.06q-.06-1.68-.06-3.84V862.94q0-7-2-10.5a9.58,9.58,0,0,0-5.94-4.68,36.67,36.67,0,0,0-10-1.14,41.42,41.42,0,0,0-9.6,1.14,42.53,42.53,0,0,0-7.68,2.46h-1.08V838.93a47.92,47.92,0,0,1,9.66-2.52,68,68,0,0,1,10.38-.84,58.33,58.33,0,0,1,11.7,1.09,23.52,23.52,0,0,1,9.36,4,19.07,19.07,0,0,1,6.24,8.29q2.22,5.34,2.22,14v15.48q0,2.4.06,6.24t.3,7.5a40.14,40.14,0,0,0,.72,5.82l-.36,1a79.35,79.35,0,0,1-8.76,2.58,89.64,89.64,0,0,1-9.6,1.74A71.12,71.12,0,0,1,391.71,903.86Z"/><path class="cls-3" d="M428.43,848.3V837h42V848.3Zm34.68,55.08q-8.4,0-13.8-2.64a17.5,17.5,0,0,1-8-7.62,25.74,25.74,0,0,1-2.64-12.18V819.61h13.44v60.13q0,6.6,2.94,9.48t9.3,2.88a21,21,0,0,0,4.74-.54,24,24,0,0,0,4-1.26h1.09v11a29.12,29.12,0,0,1-4.81,1.44A29.5,29.5,0,0,1,463.11,903.38Z"/></svg>